<?xml version="1.0" encoding="UTF-8"?>
<svg xmlns="http://www.w3.org/2000/svg"
     width="128"
     height="128"
     viewBox="0 0 128 128">

  <!-- Leaf -->
  <path fill="#0E728A"
        d="M73 20
           C88 6,108 8,110 10
           C110 32,95 46,74 48
           C72 38,72 28,73 20Z"/>

  <!-- Stem -->
  <path fill="#7C4AA5"
        d="M60 24
           C54 18,47 18,43 23
           C52 30,59 43,61 60
           C63 64,70 64,70 58
           C68 43,64 31,60 24Z"/>

  <!-- Apple -->
  <path fill="#7C4AA5"
        d="M64 40
           C47 26,18 36,18 71
           C18 103,40 118,58 118
           C62 118,66 114,71 114
           C76 114,80 118,84 118
           C102 118,110 97,110 71
           C110 36,81 26,64 40Z"/>

  <!-- Shine -->
  <path fill="#FFFFFF"
        d="M36 55
           C44 44,54 43,58 47
           C49 49,42 58,41 72
           C38 74,33 71,33 64
           C33 60,34 57,36 55Z"
        opacity="0.95"/>
</svg>
